<svg width="200" height="200" viewBox="0 0 200 200" fill="none" xmlns="http://www.w3.org/2000/svg">
<path d="M153.153 142.125L172.238 105.2C172.879 104.179 173.3 102.936 173.383 101.595C173.537 99.7275 173.016 98.0015 172.117 96.6955L152.998 60.3715C152.535 59.1605 151.81 58.0725 150.822 57.2815C149.643 56.2315 148.322 55.8315 147.06 55.9405L37.8699 42.0365C37.5799 41.9965 37.2869 41.9675 36.9939 41.9495C34.8529 41.8085 33.0719 42.1625 31.6279 42.8655C28.9349 44.1135 27.0019 46.6255 27.0039 50.5185L27.0619 154.652C26.4939 159.987 30.1469 165.095 37.8179 163.913L147.031 147.073C148.165 147.141 149.343 146.797 150.425 145.944C151.733 145.044 152.64 143.66 153.153 142.125Z" fill="url(#paint0_linear_2866_525)"/>
<path d="M73.0569 38.135V56.0599L83.9579 57.4139L62.2849 88.089L38.7949 52.204L52.5369 53.678V35L73.0569 38.135Z" fill="#02C07D"/>
<path d="M52.5373 35L46.9053 43.188L52.5373 43.974V35Z" fill="#02F4A1"/>
<path d="M61.5135 60.4943C61.4785 61.1663 61.3785 61.7663 61.2125 62.2943C61.0445 62.8243 60.8055 63.2693 60.4925 63.6293C60.1765 63.9893 59.7865 64.2603 59.3145 64.4393C58.8455 64.6193 58.2905 64.6843 57.6475 64.6363C56.9625 64.5853 56.3925 64.4353 55.9435 64.1863C55.4905 63.9363 55.1345 63.6083 54.8785 63.2023C54.6205 62.7963 54.4485 62.3193 54.3645 61.7753C54.2765 61.2283 54.2515 60.6293 54.2845 59.9803C54.3175 59.3313 54.4195 58.7423 54.5885 58.2133C54.7545 57.6853 54.9975 57.2373 55.3165 56.8673C55.6355 56.4973 56.0335 56.2254 56.5105 56.0504C56.9885 55.8764 57.5535 55.8193 58.2055 55.8823C58.9175 55.9513 59.4985 56.1244 59.9425 56.3994C60.3885 56.6734 60.7315 57.0183 60.9735 57.4343C61.2115 57.8503 61.3705 58.3223 61.4455 58.8503C61.5225 59.3773 61.5455 59.9253 61.5135 60.4943ZM59.1395 60.3763C59.1635 59.9053 59.1615 59.5033 59.1315 59.1713C59.1025 58.8363 59.0445 58.5623 58.9595 58.3503C58.8765 58.1343 58.7585 57.9743 58.6035 57.8653C58.4495 57.7563 58.2655 57.6913 58.0515 57.6723C57.8515 57.6543 57.6725 57.6832 57.5165 57.7582C57.3605 57.8362 57.2285 57.9703 57.1175 58.1623C57.0065 58.3553 56.9195 58.6112 56.8535 58.9302C56.7875 59.2482 56.7445 59.6413 56.7175 60.1043C56.6905 60.6373 56.6965 61.0783 56.7345 61.4223C56.7745 61.7663 56.8385 62.0393 56.9325 62.2403C57.0275 62.4413 57.1485 62.5863 57.2945 62.6723C57.4425 62.7563 57.6175 62.8073 57.8155 62.8223C58.0455 62.8403 58.2385 62.8043 58.3945 62.7193C58.5505 62.6313 58.6795 62.4903 58.7835 62.2923C58.8835 62.0943 58.9635 61.8353 59.0205 61.5183C59.0765 61.2003 59.1185 60.8193 59.1395 60.3763ZM69.8415 69.0313C69.8105 69.6433 69.7155 70.1933 69.5615 70.6773C69.4075 71.1633 69.1845 71.5743 68.8965 71.9083C68.6055 72.2433 68.2425 72.4973 67.8105 72.6723C67.3745 72.8433 66.8625 72.9153 66.2685 72.8853C65.6355 72.8543 65.1125 72.7293 64.6965 72.5103C64.2805 72.2913 63.9545 72.0003 63.7165 71.6353C63.4795 71.2723 63.3205 70.8403 63.2405 70.3443C63.1615 69.8493 63.1375 69.3053 63.1725 68.7123C63.2035 68.1213 63.2975 67.5803 63.4535 67.0953C63.6075 66.6123 63.8315 66.1973 64.1265 65.8543C64.4215 65.5103 64.7875 65.2543 65.2305 65.0833C65.6695 64.9153 66.1925 64.8523 66.7935 64.8953C67.4505 64.9423 67.9855 65.0873 68.3975 65.3293C68.8065 65.5703 69.1235 65.8773 69.3445 66.2523C69.5665 66.6253 69.7115 67.0533 69.7815 67.5313C69.8495 68.0123 69.8685 68.5123 69.8415 69.0313ZM67.6495 68.9724C67.6725 68.5414 67.6705 68.1774 67.6435 67.8734C67.6155 67.5694 67.5655 67.3233 67.4855 67.1273C67.4085 66.9353 67.2985 66.7903 67.1565 66.6943C67.0155 66.5983 66.8455 66.5444 66.6475 66.5294C66.4635 66.5174 66.2985 66.5483 66.1545 66.6223C66.0125 66.6933 65.8865 66.8193 65.7845 66.9973C65.6825 67.1753 65.6025 67.4103 65.5415 67.7023C65.4815 67.9933 65.4375 68.3504 65.4155 68.7744C65.3905 69.2614 65.3945 69.6613 65.4285 69.9733C65.4645 70.2873 65.5265 70.5353 65.6115 70.7153C65.6985 70.8993 65.8085 71.0273 65.9465 71.1013C66.0835 71.1743 66.2425 71.2184 66.4265 71.2274C66.6375 71.2404 66.8175 71.2043 66.9605 71.1223C67.1055 71.0403 67.2245 70.9083 67.3185 70.7263C67.4125 70.5423 67.4855 70.3073 67.5385 70.0163C67.5905 69.7263 67.6285 69.3774 67.6495 68.9724ZM57.7305 72.1802C57.6555 72.2732 57.5785 72.3474 57.5015 72.4044C57.4245 72.4614 57.3285 72.5063 57.2165 72.5413C57.1055 72.5763 56.9705 72.5983 56.8125 72.6053C56.6545 72.6123 56.4625 72.6113 56.2325 72.5993C55.9735 72.5873 55.7665 72.5593 55.6145 72.5213C55.4635 72.4803 55.3535 72.4253 55.2905 72.3593C55.2285 72.2913 55.2035 72.2143 55.2215 72.1303C55.2385 72.0453 55.2925 71.9443 55.3865 71.8273L66.7905 57.5153C66.8615 57.4363 66.9335 57.3683 67.0025 57.3113C67.0735 57.2533 67.1635 57.2113 67.2735 57.1823C67.3845 57.1543 67.5125 57.1402 67.6625 57.1382C67.8125 57.1342 67.9955 57.1442 68.2095 57.1642C68.4545 57.1882 68.6475 57.2223 68.7895 57.2663C68.9315 57.3113 69.0305 57.3683 69.0905 57.4363C69.1505 57.5053 69.1695 57.5803 69.1505 57.6653C69.1295 57.7493 69.0835 57.8423 69.0045 57.9453L57.7305 72.1802Z" fill="#5DFDC5"/>
<path d="M27.0414 125.991C45.3064 123.071 67.0264 121.378 90.3364 121.378C116.793 121.378 141.207 123.56 160.842 127.241L153.149 142.124C152.636 143.659 151.73 145.043 150.422 145.942C149.34 146.795 148.159 147.139 147.028 147.071L37.8134 163.911C30.1424 165.094 26.4894 159.985 27.0574 154.65L27.0414 125.991Z" fill="url(#paint1_linear_2866_525)"/>
<path d="M86.1768 127.839L84.5378 122.743L88.8008 119.275L83.5168 119.571L81.8548 114.405L80.1768 119.759L74.6478 120.071L79.1328 123.092L77.4328 128.523L81.8548 124.924L86.1768 127.839ZM80.5148 109.812L78.8248 104.562L83.2168 101.248L77.7748 101.294L76.0628 95.9688L74.3348 101.324L68.6348 101.373L73.2588 104.656L71.5068 110.088L76.0628 106.649L80.5148 109.812ZM85.4788 91.1377L83.8338 85.8738L88.1108 82.8097L82.8068 82.5978L81.1368 77.2607L79.4538 82.4628L73.9038 82.2407L78.4068 85.7037L76.6998 90.9788L81.1368 87.8008L85.4758 91.1367L85.4788 91.1377ZM98.3348 78.0837L96.7988 72.9427L100.794 70.1198L95.8418 69.7438L94.2838 64.5348L92.7138 69.5067L87.5398 69.1138L91.7348 72.6007L90.1428 77.6407L94.2838 74.7168L98.3348 78.0837ZM99.7668 140.429L98.2428 135.568L102.209 132.085L97.2938 132.543L95.7508 127.615L94.1898 132.833L89.0568 133.312L93.2198 136.08L91.6408 141.369L95.7498 137.761L99.7668 140.429ZM109.328 73.7917L113.061 71.0558L116.715 74.2887L115.329 69.3917L118.937 66.7457L114.465 66.3468L113.06 61.3848L111.644 66.0938L106.98 65.6758L110.762 69.0238L109.328 73.7917ZM109.328 144.616L113.061 141.144L116.715 143.656L115.329 139.032L118.937 135.673L114.465 136.156L113.06 131.473L111.644 136.46L106.98 136.965L110.762 139.564L109.328 144.616ZM124.648 137.559L128.07 134.303L131.424 136.778L130.151 132.324L133.463 129.169L129.359 129.552L128.07 125.041L126.771 129.793L122.498 130.192L125.964 132.749L124.648 137.559ZM125.886 79.5677L129.282 76.8998L132.612 79.9297L131.347 75.2758L134.638 72.6918L130.561 72.3807L129.282 67.6718L127.993 72.1877L123.753 71.8638L127.191 74.9957L125.884 79.5677H125.886ZM136.201 92.0477L139.397 89.3387L142.534 92.1617L141.344 87.6897L144.441 85.0658L140.603 84.9098L139.398 80.3857L138.186 84.8147L134.197 84.6558L137.432 87.5677L136.203 92.0477H136.201ZM139.849 108.002L142.975 105.171L146.043 107.813L144.877 103.447L147.91 100.701L144.153 100.733L142.974 96.3147L141.789 100.753L137.885 100.785L141.05 103.511L139.849 108.002ZM135.675 123.968L138.881 120.947L142.026 123.472L140.832 119.109L143.94 116.18L140.091 116.396L138.881 111.98L137.663 116.533L133.663 116.756L136.906 119.362L135.675 123.968Z" fill="#FFFF66" stroke="#FFFF66" stroke-width="0.072" stroke-linejoin="round"/>
<path d="M127.45 96.876C127.446 97.105 127.435 97.2981 127.418 97.4581C127.402 97.6201 127.379 97.749 127.349 97.846C127.32 97.944 127.284 98.0151 127.241 98.0611C127.197 98.1071 127.149 98.129 127.1 98.127L124.318 98.0351L124.1 110.561C124.098 110.641 124.078 110.713 124.038 110.78C123.999 110.845 123.935 110.899 123.849 110.942C123.759 110.985 123.641 111.022 123.49 111.051C123.341 111.083 123.154 111.101 122.928 111.11C122.705 111.12 122.517 111.114 122.366 111.095C122.215 111.076 122.095 111.047 122.006 111.012C121.917 110.975 121.853 110.924 121.816 110.862C121.779 110.798 121.761 110.726 121.762 110.645L121.982 97.9571L119.04 97.8601C118.979 97.8581 118.926 97.8311 118.884 97.7811C118.842 97.7291 118.804 97.6521 118.778 97.5471C118.748 97.4431 118.728 97.307 118.714 97.138C118.703 96.966 118.699 96.762 118.703 96.523C118.706 96.276 118.719 96.067 118.736 95.892C118.754 95.72 118.78 95.5841 118.813 95.4831C118.845 95.3791 118.884 95.307 118.928 95.263C118.97 95.22 119.026 95.2011 119.086 95.2021L127.145 95.585C127.195 95.589 127.243 95.6111 127.285 95.6561C127.325 95.7021 127.359 95.7751 127.385 95.8741C127.414 95.9741 127.432 96.106 127.443 96.272C127.454 96.438 127.453 96.64 127.45 96.876ZM103.818 111.155C103.778 111.307 103.728 111.431 103.669 111.527C103.609 111.624 103.515 111.697 103.384 111.752C103.254 111.806 103.076 111.844 102.85 111.865L101.963 111.921L101.206 111.942L100.667 111.929C100.52 111.916 100.398 111.894 100.304 111.862C100.213 111.829 100.136 111.788 100.075 111.735C100.011 111.682 99.9639 111.619 99.9309 111.543L99.8409 111.253L95.7049 95.456C95.6159 95.118 95.5639 94.8511 95.5489 94.6551C95.5309 94.4601 95.5749 94.315 95.6749 94.221C95.7729 94.129 95.9399 94.0761 96.1719 94.0661C96.4069 94.0531 96.7319 94.0571 97.1499 94.0771C97.5029 94.0951 97.7799 94.1171 97.9779 94.1441C98.1739 94.1721 98.3279 94.2101 98.4319 94.2611C98.5379 94.3121 98.6109 94.3841 98.6529 94.4771C98.6919 94.5721 98.7299 94.6881 98.7649 94.8271L102.042 108.43C105.616 95.2 105.627 95.2 105.627 95.2C105.658 95.051 105.695 94.931 105.74 94.84C105.784 94.749 105.859 94.68 105.962 94.633C106.066 94.585 106.212 94.5571 106.402 94.5471C106.593 94.5411 106.853 94.542 107.184 94.559C107.504 94.575 107.751 94.599 107.93 94.633C108.104 94.669 108.225 94.737 108.288 94.84C108.352 94.944 108.371 95.086 108.344 95.268C108.316 95.451 108.258 95.6931 108.171 95.9951L103.818 111.155ZM119.192 109.974C119.26 110.267 119.302 110.5 119.319 110.671C119.332 110.843 119.306 110.974 119.237 111.062C119.168 111.152 119.047 111.209 118.875 111.238C118.703 111.263 118.464 111.284 118.161 111.296L117.416 111.307C117.238 111.299 117.102 111.282 117.008 111.246C116.913 111.214 116.849 111.163 116.812 111.098C116.775 111.033 116.748 110.947 116.723 110.84L115.973 107.606L111.197 107.696L110.32 110.979C110.293 111.101 110.255 111.204 110.21 111.287C110.164 111.371 110.091 111.438 109.992 111.489C109.892 111.54 109.754 111.578 109.573 111.603C109.394 111.626 109.156 111.645 108.863 111.657C108.546 111.668 108.301 111.665 108.12 111.645C107.942 111.625 107.818 111.568 107.752 111.469C107.683 111.37 107.662 111.231 107.688 111.046C107.71 110.862 107.767 110.615 107.854 110.308L112.162 95.4631C112.204 95.3221 112.254 95.2051 112.307 95.1181C112.361 95.0301 112.449 94.965 112.564 94.924C112.68 94.883 112.841 94.8621 113.044 94.8581L113.85 94.8781L114.764 94.94C114.989 94.963 115.163 95.002 115.287 95.055C115.412 95.106 115.499 95.1791 115.553 95.2761C115.607 95.3691 115.65 95.498 115.685 95.658L119.192 109.974ZM113.752 98.0781L111.849 105.084L115.404 105.064L113.752 98.0781Z" fill="#DEE67F"/>
<defs>
<linearGradient id="paint0_linear_2866_525" x1="173.696" y1="100.958" x2="25.9338" y2="103.148" gradientUnits="userSpaceOnUse">
<stop stop-color="#9F68BC"/>
<stop offset="1" stop-color="#2F1BE7"/>
</linearGradient>
<linearGradient id="paint1_linear_2866_525" x1="26.4062" y1="121.6" x2="160.195" y2="166.991" gradientUnits="userSpaceOnUse">
<stop stop-color="#6600CC"/>
<stop offset="1" stop-color="#019AE2"/>
</linearGradient>
</defs>
</svg>
